<svg xmlns="http://www.w3.org/2000/svg" xmlns:xlink="http://www.w3.org/1999/xlink" width="696" height="236" viewBox="0 0 696 236">
  <defs>
    <clipPath id="clip-method_2_picture_logo_1">
      <rect width="696" height="236"/>
    </clipPath>
  </defs>
  <g id="method_2_picture_logo_1" data-name="method_2_picture_logo – 1" clip-path="url(#clip-method_2_picture_logo_1)">
    <path id="Path_18" data-name="Path 18" d="M40.74,0H51.38L29.54-27.09,50.12-49H39.9L15.68-23.87V-49H6.58V0h9.1V-12.53l7.77-7.98ZM78.47-37.8c-5.18,0-9.59,1.68-12.46,4.76v-18.9H57.26V0h8.75V-18.9c0-7.49,4.2-11.27,10.43-11.27,5.6,0,8.89,3.22,8.89,9.87V0h8.75V-21.42C94.08-32.69,87.43-37.8,78.47-37.8Zm41.51,0c-6.02,0-11.83,1.54-15.82,4.62l3.43,6.37a18.505,18.505,0,0,1,11.34-3.71c6.23,0,9.31,3.01,9.31,8.12v.56h-9.66c-11.34,0-15.54,4.9-15.54,11.13,0,6.51,5.39,11.2,13.93,11.2,5.6,0,9.66-1.82,11.76-5.04V0h8.26V-21.91C136.99-32.69,130.76-37.8,119.98-37.8ZM118.79-5.88c-4.48,0-7.14-2.03-7.14-5.18,0-2.73,1.61-4.97,7.56-4.97h9.03v4.34C126.77-7.84,123.06-5.88,118.79-5.88Zm58.1-46.06v19.18c-2.94-3.43-7.21-5.04-12.04-5.04-10.85,0-18.9,7.49-18.9,19.11S154,.49,164.85.49c5.11,0,9.45-1.75,12.39-5.32V0h8.4V-51.94ZM165.9-7c-6.3,0-11.13-4.55-11.13-11.69s4.83-11.69,11.13-11.69,11.13,4.55,11.13,11.69S172.2-7,165.9-7Zm36.12-36.54a5.372,5.372,0,0,0,5.6-5.46c0-2.87-2.38-5.04-5.6-5.04a5.33,5.33,0,0,0-5.6,5.25A5.33,5.33,0,0,0,202.02-43.54ZM197.61,0h8.75V-37.38h-8.75Zm41.93-37.8c-5.46,0-10.01,1.82-12.88,5.25v-4.83h-8.33V0h8.75V-18.9c0-7.49,4.2-11.27,10.43-11.27,5.6,0,8.89,3.22,8.89,9.87V0h8.75V-21.42C255.15-32.69,248.5-37.8,239.54-37.8Zm62.72,19.32c0-11.69-7.98-19.32-18.9-19.32-11.13,0-19.32,7.98-19.32,19.11S272.16.49,284.69.49c6.44,0,11.69-2.1,15.05-6.09l-4.69-5.39A13.4,13.4,0,0,1,284.9-6.93c-6.51,0-11.06-3.5-12.11-8.96h29.33C302.19-16.73,302.26-17.78,302.26-18.48ZM283.36-30.8a10.176,10.176,0,0,1,10.57,9.1H272.72A10.331,10.331,0,0,1,283.36-30.8ZM354.48.7c8.05,0,14.91-2.87,19.46-8.19l-5.88-5.6a17.036,17.036,0,0,1-13.09,5.81c-10.15,0-17.5-7.14-17.5-17.22s7.35-17.22,17.5-17.22a17.208,17.208,0,0,1,13.09,5.74l5.88-5.53c-4.55-5.32-11.41-8.19-19.39-8.19-15.05,0-26.25,10.57-26.25,25.2S339.5.7,354.48.7Zm41.79-38.5c-6.02,0-11.83,1.54-15.82,4.62l3.43,6.37a18.505,18.505,0,0,1,11.34-3.71c6.23,0,9.31,3.01,9.31,8.12v.56h-9.66c-11.34,0-15.54,4.9-15.54,11.13,0,6.51,5.39,11.2,13.93,11.2,5.6,0,9.66-1.82,11.76-5.04V0h8.26V-21.91C413.28-32.69,407.05-37.8,396.27-37.8ZM395.08-5.88c-4.48,0-7.14-2.03-7.14-5.18,0-2.73,1.61-4.97,7.56-4.97h9.03v4.34C403.06-7.84,399.35-5.88,395.08-5.88Zm34.3-37.66a5.372,5.372,0,0,0,5.6-5.46c0-2.87-2.38-5.04-5.6-5.04a5.33,5.33,0,0,0-5.6,5.25A5.33,5.33,0,0,0,429.38-43.54ZM424.97,0h8.75V-37.38h-8.75ZM466.9-37.8c-5.46,0-10.01,1.82-12.88,5.25v-4.83h-8.33V0h8.75V-18.9c0-7.49,4.2-11.27,10.43-11.27,5.6,0,8.89,3.22,8.89,9.87V0h8.75V-21.42C482.51-32.69,475.86-37.8,466.9-37.8Zm62.72,19.32c0-11.69-7.98-19.32-18.9-19.32-11.13,0-19.32,7.98-19.32,19.11S499.52.49,512.05.49c6.44,0,11.69-2.1,15.05-6.09l-4.69-5.39a13.4,13.4,0,0,1-10.15,4.06c-6.51,0-11.06-3.5-12.11-8.96h29.33C529.55-16.73,529.62-17.78,529.62-18.48ZM510.72-30.8a10.176,10.176,0,0,1,10.57,9.1H500.08A10.331,10.331,0,0,1,510.72-30.8ZM550.06.49C560.56.49,567-4.06,567-11.06c0-14.63-23.1-7.91-23.1-15.47,0-2.45,2.52-4.2,7.84-4.2a20.461,20.461,0,0,1,10.71,2.8l3.36-6.65c-3.36-2.03-9.03-3.22-14-3.22-10.08,0-16.45,4.62-16.45,11.69,0,14.91,23.1,8.19,23.1,15.33,0,2.59-2.31,4.13-7.84,4.13a25.151,25.151,0,0,1-13.02-3.71l-3.36,6.65C537.6-1.33,543.83.49,550.06.49Z" transform="translate(61.21 144.67)"/>
  </g>
</svg>
